HIERARCHY
ROOT Hips
{
  OFFSET 5.83306 97.1793 -69.6814
  CHANNELS 6 Xposition Yposition Zposition Zrotation Xrotation Yrotation
  JOINT ToSpine
  {
    OFFSET -2.69724 7.43032 -0.144315
    CHANNELS 3 Zrotation Xrotation Yrotation
    JOINT Spine
    {
      OFFSET -0.0310711 10.7595 1.96963
      CHANNELS 3 Zrotation Xrotation Yrotation
      JOINT Spine1
      {
        OFFSET 13.1342 3.43533 0.764692
        CHANNELS 3 Zrotation Xrotation Yrotation
        JOINT Neck
        {
          OFFSET 29.8703 7.82586 -0.130764
          CHANNELS 3 Zrotation Xrotation Yrotation
          JOINT Head
          {
            OFFSET 9.52751 0.295786 -0.907742
            CHANNELS 3 Zrotation Xrotation Yrotation
            End Site
            {
              OFFSET 16.4037 0.713936 2.7358
            }
          }
        }
        JOINT LeftShoulder
        {
          OFFSET 27.5574 4.95586 2.47156
          CHANNELS 3 Zrotation Xrotation Yrotation
          JOINT LeftArm
          {
            OFFSET 1.20734 -0.998971 20.1238
            CHANNELS 3 Zrotation Xrotation Yrotation
            JOINT LeftForeArm
            {
              OFFSET 26.8049 -0.0536703 -0.155908
              CHANNELS 3 Zrotation Xrotation Yrotation
              JOINT LeftHand
              {
                OFFSET 26.6817 0 0.320147
                CHANNELS 3 Zrotation Xrotation Yrotation
                End Site
                {
                  OFFSET 18.6119 0 0.382219
                }
              }
            }
          }
        }
        JOINT RightShoulder
        {
          OFFSET 27.5927 4.71444 -2.65209
          CHANNELS 3 Zrotation Xrotation Yrotation
          JOINT RightArm
          {
            OFFSET 2.83739 -1.17114 -18.7564
            CHANNELS 3 Zrotation Xrotation Yrotation
            JOINT RightForeArm
            {
              OFFSET 28.839 -0.0548439 1.22491
              CHANNELS 3 Zrotation Xrotation Yrotation
              JOINT RightHand
              {
                OFFSET 26.5114 0 -0.101894
                CHANNELS 3 Zrotation Xrotation Yrotation
                End Site
                {
                  OFFSET 18.2168 0 0
                }
              }
            }
          }
        }
      }
    }
  }
  JOINT LeftUpLeg
  {
    OFFSET -4.76168 -1.9167 -10.2353
    CHANNELS 3 Zrotation Xrotation Yrotation
    JOINT LeftLeg
    {
      OFFSET 2.55951 -42.0585 -8.02213
      CHANNELS 3 Zrotation Xrotation Yrotation
      JOINT LeftFoot
      {
        OFFSET 3.16357 -42.5282 -3.95426
        CHANNELS 3 Zrotation Xrotation Yrotation
        JOINT LeftToeBase
        {
          OFFSET 0.346054 -6.02161 12.8035
          CHANNELS 3 Zrotation Xrotation Yrotation
          End Site
          {
            OFFSET 0.134235 -1.35082 5.13018
          }
        }
      }
    }
  }
  JOINT RightUpLeg
  {
    OFFSET -4.94151 -1.41743 10.6446
    CHANNELS 3 Zrotation Xrotation Yrotation
    JOINT RightLeg
    {
      OFFSET -2.56294 -42.0364 -7.94377
      CHANNELS 3 Zrotation Xrotation Yrotation
      JOINT RightFoot
      {
        OFFSET -3.0952 -42.555 -4.02241
        CHANNELS 3 Zrotation Xrotation Yrotation
        JOINT RightToeBase
        {
          OFFSET -0.0828122 -6.13587 12.8035
          CHANNELS 3 Zrotation Xrotation Yrotation
          End Site
          {
            OFFSET -0.131328 -1.35082 5.13018
          }
        }
      }
    }
  }
}
MOTION
Frames:	8
Frame Time:	0.0333333
3.46159 95.1107 -50.1369 67.5231 -37.6048 -12.8626 -70.1915 0 88.8779 76.6131 72.4236 9.2709 2.56742 21.3798 4.82212 -120.86 31.9164 151.755 -164.282 77.7199 -164.717 0.457577 -16.28 -19.1047 -68.0123 28.3076 -148.601 23.8728 -1.18094 -91.9595 0.420957 0.000575376 0.35866 -2.15602 9.74824 36.0685 -133.432 -3.19954 110.196 12.4657 -4.7465 69.4315 0.58676 0.000330958 0.0646653 -51.1216 8.41074 97.6179 -2.40842 39.7446 -5.02291 0.580857 -12.8542 -1.11978 4.50653 -11.3639 10.1261 -41.5399 -10.2044 77.0215 1.68478 35.1732 1.61397 -1.6314 -0.127904 0.365879 0.886705 -8.05556 0.960741 
3.28045 95.2916 -51.0577 67.5891 -37.7257 -12.9449 -70.1915 0 88.8779 78.4721 72.6033 6.67866 2.01478 21.3644 4.95004 -121.134 32.0049 151.478 -164.124 77.8298 -164.719 0.417349 -16.1967 -19.9929 -67.146 27.7601 -147.686 23.835 -1.55562 -92.8128 0.420957 0.000575376 0.35866 -2.19446 9.70534 36.5812 -133.626 -3.4858 108.979 12.358 -4.19766 71.4664 0.58676 0.000330958 0.0646653 -51.0952 7.91115 97.8334 -2.40637 39.2245 -5.28421 0.682284 -12.8861 -1.1253 4.03927 -10.595 10.2298 -40.1921 -11.2577 77.0097 2.0721 36.9317 5.00015 -0.769003 1.6567 0.131812 1.51794 -9.69224 -4.55141 
3.14395 95.3147 -51.6169 67.8925 -37.8213 -13.0219 -70.1915 0 88.8779 78.2275 72.8702 6.14708 2.1157 21.6489 4.6907 -121.781 32.4151 151.921 -166.307 77.9953 -162.86 0.344276 -16.5562 -20.6004 -66.3008 27.7968 -146.443 23.8125 -1.84101 -93.4531 0.420957 0.000575376 0.35866 -2.24721 9.37003 38.0279 -133.54 -3.07338 107.482 11.6351 -3.40159 73.8561 0.58676 0.000330958 0.0646653 -51.397 7.46038 98.1017 -2.4112 38.7459 -5.54864 0.779951 -12.8557 -1.1244 3.90406 -10.3773 10.3 -39.5305 -11.7398 78.0736 2.35209 38.1007 7.0073 -1.48009 1.62323 0.229894 1.95078 -12.8375 -7.68907 
3.09354 95.4846 -51.7703 68.1989 -37.3994 -12.7364 -70.1915 0 88.8779 75.8572 72.6868 8.18676 2.71266 21.6727 4.15948 -123.257 33.2337 153.515 -169.844 78.1048 -160.412 0.352588 -16.1196 -21.3472 -65.1048 27.9199 -145.287 24.1168 -2.0927 -93.9484 0.420957 0.000575376 0.35866 -2.27075 9.2616 38.5858 -133.455 -3.14569 105.262 11.9621 -2.94819 76.2613 0.58676 0.000330958 0.0646653 -51.821 6.78097 97.2056 -2.23168 37.7319 -4.57518 0.990319 -12.7501 -1.11968 3.70108 -9.92926 9.64124 -40.4015 -11.6674 78.8304 2.28389 36.7323 7.07899 -2.49177 0.79076 0.427131 2.08766 -13.9372 -9.73002 
3.06209 95.537 -51.8794 68.6068 -37.1638 -12.2057 -70.1915 0 88.8779 74.5014 72.6565 9.97452 3.1317 22.0381 3.13265 -123.826 33.7512 154.339 -169.845 78.2861 -160.605 0.321015 -16.0639 -22.0613 -63.8019 28.039 -143.781 24.2918 -2.34472 -94.4579 0.420957 0.000575376 0.35866 -2.30806 8.75512 40.5137 -133.327 -2.28318 103.188 12.8742 -2.67059 78.359 0.58676 0.000330958 0.0646653 -52.2689 6.62804 96.5839 -2.08695 37.151 -3.72979 1.27367 -13.4123 -1.17113 3.15884 -8.75272 8.42524 -42.2399 -11.0834 79.3343 1.91285 33.7604 5.35946 -1.96434 1.9927 0.283169 1.97897 -13.1163 -7.57444 
2.98319 95.5076 -51.7382 68.9848 -37.0187 -11.9548 -70.1915 0 88.8779 70.7174 72.6343 13.6487 4.0338 22.3603 2.84171 -124.965 34.8805 157.112 -177.888 78.3556 -152.762 0.160624 -16.4809 -23.9506 -63.4309 28.2272 -141.041 24.6042 -2.6998 -95.1478 0.420957 0.000575376 0.35866 -2.50124 8.88933 42.2674 -133.236 -1.02158 101.711 13.4495 -2.5577 79.3013 0.58676 0.000330958 0.0646653 -52.3664 6.48853 96.0378 -2.11181 37.4482 -3.78119 1.47682 -14.1017 -1.22071 2.53521 -7.85264 9.32137 -44.0152 -10.6382 79.5525 1.67912 31.0931 4.3094 -1.78433 2.18808 0.242535 1.45506 -9.69146 -3.91962 
2.86562 95.2997 -51.5975 69.3017 -37.0337 -11.5313 -70.1915 0 88.8779 69.4346 72.4857 15.2221 4.36699 22.4614 2.57812 -126.945 35.8668 159.788 178.939 78.3432 -149.979 0.166198 -16.135 -24.7506 -62.8854 29.2758 -139.13 25.7105 -2.83193 -95.1366 0.420957 0.000575376 0.35866 -2.45642 8.43392 43.3012 -132.446 -0.869814 101.27 12.8431 -2.63474 78.4812 0.58676 0.000330958 0.0646653 -52.2892 6.71868 95.6302 -2.16257 38.1754 -3.8478 1.3324 -14.3736 -1.2385 2.91601 -8.53881 9.45166 -45.2256 -9.965 79.6282 1.53993 29.4317 3.2417 -1.73633 0.879479 0.31622 1.1591 -7.31992 -2.75087 
2.75423 95.1223 -51.515 69.5751 -37.1672 -11.1411 -70.1915 0 88.8779 69.7552 72.314 15.5675 4.37276 22.5067 1.99489 -128.223 36.1047 160.671 -174.469 78.4694 -156.127 0.284328 -15.3773 -24.6409 -62.1852 31.1358 -138.051 26.7406 -2.83314 -94.8866 0.420957 0.000575376 0.35866 -2.43506 8.25686 43.6834 -131.675 -1.55962 101.017 12.2977 -2.89018 76.8749 0.58676 0.000330958 0.0646653 -51.953 7.00654 95.2752 -2.28135 39.2798 -4.16178 1.7375 -14.207 -1.22864 3.37185 -9.49679 10.3745 -46.2124 -9.35137 79.6076 1.42435 28.1511 1.55679 -2.05063 -0.720423 0.454661 0.695218 -5.15178 -0.754257 
